HIERARCHY
ROOT hips
{
  OFFSET 0 9.313263304106702 1.2146308026317778
  CHANNELS 6 Xposition Yposition Zposition Yrotation Xrotation Zrotation
  JOINT spine
  {
    OFFSET -6.402521e-31 0.5173342420023708 0
    CHANNELS 3 Yrotation Xrotation Zrotation
    JOINT chest
    {
      OFFSET 0 1.130544299341115 0
      CHANNELS 3 Yrotation Xrotation Zrotation
      JOINT upperChest
      {
        OFFSET 0 1.0863555061129995 0
        CHANNELS 3 Yrotation Xrotation Zrotation
        JOINT neck
        {
          OFFSET 0 1.3773706506454462 0
          CHANNELS 3 Yrotation Xrotation Zrotation
          JOINT head
          {
            OFFSET 0 0.7374408940073979 0
            CHANNELS 3 Yrotation Xrotation Zrotation
            JOINT leftEye
            {
              OFFSET 0.25066580148932727 0.6408406698778757 0.15963719178883284
              CHANNELS 3 Yrotation Xrotation Zrotation
              End Site
              {
                OFFSET 0.25066580148932727 0.6408406698778757 0.15963719178883284
              }
            }
            JOINT rightEye
            {
              OFFSET -0.25066576739704244 0.6408406384191823 0.15963727561643756
              CHANNELS 3 Yrotation Xrotation Zrotation
              End Site
              {
                OFFSET -0.25066576739704244 0.6408406384191823 0.15963727561643756
              }
            }
          }
        }
        JOINT leftShoulder
        {
          OFFSET 0.3761817444281191 1.0539491987447769 0
          CHANNELS 3 Yrotation Xrotation Zrotation
          JOINT leftUpperArm
          {
            OFFSET 0.8702844380000002 0 0
            CHANNELS 3 Yrotation Xrotation Zrotation
            JOINT leftLowerArm
            {
              OFFSET 2.198527310000323 0 0
              CHANNELS 3 Yrotation Xrotation Zrotation
              JOINT leftHand
              {
                OFFSET 2.146852313968281 0 0
                CHANNELS 3 Yrotation Xrotation Zrotation
                JOINT leftIndexProximal
                {
                  OFFSET 0.6585177834681599 0.07380250427007962 0.18382213159631788
                  CHANNELS 3 Yrotation Xrotation Zrotation
                  JOINT leftIndexIntermediate
                  {
                    OFFSET 0.3323021288626682 -0.009606893929485771 -0.012820872253340998
                    CHANNELS 3 Yrotation Xrotation Zrotation
                    JOINT leftIndexDistal
                    {
                      OFFSET 0.2045908926985518 -0.0071133989147997845 -0.006828784783599051
                      CHANNELS 3 Yrotation Xrotation Zrotation
                      End Site
                      {
                        OFFSET 0.2045908926985518 -0.0071133989147997845 -0.006828784783599051
                      }
                    }
                  }
                }
                JOINT leftLittleProximal
                {
                  OFFSET 0.6110054258835662 0.07380246363125398 -0.29175655876064077
                  CHANNELS 3 Yrotation Xrotation Zrotation
                  JOINT leftLittleIntermediate
                  {
                    OFFSET 0.3144281999999998 -2.5124724523095665e-9 1.8658118799974588e-7
                    CHANNELS 3 Yrotation Xrotation Zrotation
                    JOINT leftLittleDistal
                    {
                      OFFSET 0.18116185580251631 0.002815456192251098 0.0034826415518049436
                      CHANNELS 3 Yrotation Xrotation Zrotation
                      End Site
                      {
                        OFFSET 0.18116185580251631 0.002815456192251098 0.0034826415518049436
                      }
                    }
                  }
                }
                JOINT leftMiddleProximal
                {
                  OFFSET 0.6637478005691111 0.07380246480054087 0.02046981859247815
                  CHANNELS 3 Yrotation Xrotation Zrotation
                  JOINT leftMiddleIntermediate
                  {
                    OFFSET 0.3705733999999994 -2.9611069152224445e-9 9.35054791928458e-8
                    CHANNELS 3 Yrotation Xrotation Zrotation
                    JOINT leftMiddleDistal
                    {
                      OFFSET 0.22861063500000056 -1.82673876025774e-9 -1.6740782024515788e-7
                      CHANNELS 3 Yrotation Xrotation Zrotation
                      End Site
                      {
                        OFFSET 0.22861063500000056 -1.82673876025774e-9 -1.6740782024515788e-7
                      }
                    }
                  }
                }
                JOINT leftRingProximal
                {
                  OFFSET 0.6561845547265777 0.07380246406440083 -0.13588087571513918
                  CHANNELS 3 Yrotation Xrotation Zrotation
                  JOINT leftRingIntermediate
                  {
                    OFFSET 0.3437531000000005 -2.746796123886952e-9 1.4935781944558357e-7
                    CHANNELS 3 Yrotation Xrotation Zrotation
                    JOINT leftRingDistal
                    {
                      OFFSET 0.1983118991198174 -0.002467117924596085 -0.004538141969590015
                      CHANNELS 3 Yrotation Xrotation Zrotation
                      End Site
                      {
                        OFFSET 0.1983118991198174 -0.002467117924596085 -0.004538141969590015
                      }
                    }
                  }
                }
                JOINT leftThumbProximal
                {
                  OFFSET 0.09767004258864787 -0.14930060425447422 -0.07008212897521154
                  CHANNELS 3 Yrotation Xrotation Zrotation
                  JOINT leftThumbIntermediate
                  {
                    OFFSET 0.36682123028154767 -0.015768465060082004 0.28693641268151077
                    CHANNELS 3 Yrotation Xrotation Zrotation
                    JOINT leftThumbDistal
                    {
                      OFFSET 0.21091084272403915 -0.016756648201192714 0.1933767059105508
                      CHANNELS 3 Yrotation Xrotation Zrotation
                      End Site
                      {
                        OFFSET 0.21091084272403915 -0.016756648201192714 0.1933767059105508
                      }
                    }
                  }
                }
              }
            }
          }
        }
        JOINT rightShoulder
        {
          OFFSET -0.37618174442811925 1.0539491987447769 0
          CHANNELS 3 Yrotation Xrotation Zrotation
          JOINT rightUpperArm
          {
            OFFSET -0.870284438 0 0
            CHANNELS 3 Yrotation Xrotation Zrotation
            JOINT rightLowerArm
            {
              OFFSET -2.1985273100003235 0 0
              CHANNELS 3 Yrotation Xrotation Zrotation
              JOINT rightHand
              {
                OFFSET -2.1468523139682802 0 0
                CHANNELS 3 Yrotation Xrotation Zrotation
                JOINT rightIndexProximal
                {
                  OFFSET -0.6585177834681599 0.07380250427007962 0.18382213159631788
                  CHANNELS 3 Yrotation Xrotation Zrotation
                  JOINT rightIndexIntermediate
                  {
                    OFFSET -0.3323021288626682 -0.009606893929485771 -0.012820872253340998
                    CHANNELS 3 Yrotation Xrotation Zrotation
                    JOINT rightIndexDistal
                    {
                      OFFSET -0.2045908926985518 -0.0071133989147997845 -0.006828784783599051
                      CHANNELS 3 Yrotation Xrotation Zrotation
                      End Site
                      {
                        OFFSET -0.2045908926985518 -0.0071133989147997845 -0.006828784783599051
                      }
                    }
                  }
                }
                JOINT rightLittleProximal
                {
                  OFFSET -0.6110054258835662 0.07380246363125398 -0.29175655876064077
                  CHANNELS 3 Yrotation Xrotation Zrotation
                  JOINT rightLittleIntermediate
                  {
                    OFFSET -0.3144281999999998 -2.5124724523095665e-9 1.8658118799974588e-7
                    CHANNELS 3 Yrotation Xrotation Zrotation
                    JOINT rightLittleDistal
                    {
                      OFFSET -0.18116185580251631 0.002815456192251098 0.0034826415518049436
                      CHANNELS 3 Yrotation Xrotation Zrotation
                      End Site
                      {
                        OFFSET -0.18116185580251631 0.002815456192251098 0.0034826415518049436
                      }
                    }
                  }
                }
                JOINT rightMiddleProximal
                {
                  OFFSET -0.6637478005691111 0.07380246480054087 0.02046981859247815
                  CHANNELS 3 Yrotation Xrotation Zrotation
                  JOINT rightMiddleIntermediate
                  {
                    OFFSET -0.3705733999999994 -2.9611069152224445e-9 9.35054791928458e-8
                    CHANNELS 3 Yrotation Xrotation Zrotation
                    JOINT rightMiddleDistal
                    {
                      OFFSET -0.22861063500000056 -1.82673876025774e-9 -1.6740782024515788e-7
                      CHANNELS 3 Yrotation Xrotation Zrotation
                      End Site
                      {
                        OFFSET -0.22861063500000056 -1.82673876025774e-9 -1.6740782024515788e-7
                      }
                    }
                  }
                }
                JOINT rightRingProximal
                {
                  OFFSET -0.6561845547265777 0.07380246406440083 -0.13588087571513918
                  CHANNELS 3 Yrotation Xrotation Zrotation
                  JOINT rightRingIntermediate
                  {
                    OFFSET -0.3437531000000005 -2.746796123886952e-9 1.4935781944558357e-7
                    CHANNELS 3 Yrotation Xrotation Zrotation
                    JOINT rightRingDistal
                    {
                      OFFSET -0.1983118991198174 -0.002467117924596085 -0.004538141969590015
                      CHANNELS 3 Yrotation Xrotation Zrotation
                      End Site
                      {
                        OFFSET -0.1983118991198174 -0.002467117924596085 -0.004538141969590015
                      }
                    }
                  }
                }
                JOINT rightThumbProximal
                {
                  OFFSET -0.09767004258864787 -0.14930060425447422 -0.07008212897521154
                  CHANNELS 3 Yrotation Xrotation Zrotation
                  JOINT rightThumbIntermediate
                  {
                    OFFSET -0.36682123028154767 -0.015768465060082004 0.28693641268151077
                    CHANNELS 3 Yrotation Xrotation Zrotation
                    JOINT rightThumbDistal
                    {
                      OFFSET -0.21091084272403915 -0.016756648201192714 0.1933767059105508
                      CHANNELS 3 Yrotation Xrotation Zrotation
                      End Site
                      {
                        OFFSET -0.21091084272403915 -0.016756648201192714 0.1933767059105508
                      }
                    }
                  }
                }
              }
            }
          }
        }
      }
    }
  }
  JOINT leftUpperLeg
  {
    OFFSET 0.7715603 -0.3993844658041501 0
    CHANNELS 3 Yrotation Xrotation Zrotation
    JOINT leftLowerLeg
    {
      OFFSET 0 -3.529830000249343 0
      CHANNELS 3 Yrotation Xrotation Zrotation
      JOINT leftFoot
      {
        OFFSET 0 -4.154939295409685 0.004208579085223096
        CHANNELS 3 Yrotation Xrotation Zrotation
        JOINT leftToes
        {
          OFFSET 0 -0.6353414391261847 1.10414981190622
          CHANNELS 3 Yrotation Xrotation Zrotation
          End Site
          {
            OFFSET 0 -0.6015820691747853 1.10414981190622
          }
        }
      }
    }
  }
  JOINT rightUpperLeg
  {
    OFFSET -0.7715603 -0.3993844658041501 0
    CHANNELS 3 Yrotation Xrotation Zrotation
    JOINT rightLowerLeg
    {
      OFFSET 0 -3.529830000249343 0
      CHANNELS 3 Yrotation Xrotation Zrotation
      JOINT rightFoot
      {
        OFFSET 0 -4.154939295409685 0.004208579085223096
        CHANNELS 3 Yrotation Xrotation Zrotation
        JOINT rightToes
        {
          OFFSET 0 -0.6353414391261847 1.10414981190622
          CHANNELS 3 Yrotation Xrotation Zrotation
          End Site
          {
            OFFSET 0 -0.6015820691747853 1.10414981190622
          }
        }
      }
    }
  }
}
MOTION
Frames: 4
Frame Time: 0.03333333333333333
-0.1118774644353173 8.888444033536043 1.3516622467261756 -0.03997111584721932 -0.3802017219126442 -1.2976724550888197 -0.2616976097883963 -0.08558565719166956 0.22386931698628285 -4.127943636352946 -0.8417805015507094 0.06781446950763467 0 0 0 1.6428973683661061 -1.6497061300901719 -1.3394054897042618 -0.25916114226176157 9.28595304436396 2.2393078954125674 0 0 0 0 0 0 12.074438019986683 -1.014954304505508 1.1747291590063667 -17.77468430267541 6.7158928253785914 -71.30780027742529 -31.301213136445508 -0.000057984103104599896 0.000005009062386946117 12.50469853312175 11.72565040016595 -10.6994994717919 0.6884122957003731 -0.21669328392113377 -20.800052181625684 3.5529451984518032 0.9791915679605822 -30.791721060908888 1.484953749835252 0.16288239523423279 -12.46436137791843 6.3891464284553985 3.3895448183454193 -42.39026299136422 -2.162333728453107 0.33350908152392106 -16.69119432772956 0.9110157536251715 0.08849872289429168 -7.649875619520453 1.9281635882852326 0.1305049775440624 -27.288498965710875 2.2758299351506968 0.3839422407843029 -19.189761466200633 1.784534093772858 0.23390207864145365 -14.933758614110145 1.6282149604067615 -0.305143612125411 -33.75040071568748 1.688415747777977 0.2094710559762764 -14.131730992906212 1.3251637437429504 0.12829719330536812 -11.048242337423877 13.857633873106625 -12.07648856182678 4.201152275263977 12.395865320916307 8.151130472430042 4.081681053059285 1.3640906709424123 -0.7280108194289169 2.7279571362138446 -2.5370925753054947 -0.05876737146955171 -5.639434289918688 21.503785490889683 2.700361424421524 78.19210038872929 27.253852773897638 -0.000016182826692130277 -0.000010760038973552028 -13.67329196053233 0.5870982768334393 0.03201136633677499 -4.607293400334621 0.6321071297160568 8.603526629793313 -4.140748975260535 1.3730944348026737 36.60996551857548 -1.1799197309281784 0.09861184531158723 9.64331133157159 -6.847986430403515 3.4023807931716172 36.8050686844563 -1.7011551711619817 0.19388824298551038 14.87593274842762 -0.9291490726259983 0.04216736392661185 7.169087552927762 -6.653353862787504 1.7490282260102006 17.055610540801208 -2.933147057650913 0.6725150673733973 25.673299041100513 -0.989818465126612 -1.8002958854380366 6.194624411658412 -4.553377004625924 1.4770968245523588 27.275605250570738 -2.1338844667522525 0.32825679191052715 17.573654726938244 -1.342195493191193 -2.0341267751804235 8.38970913588762 -23.583293556674167 4.8965730915273324 -8.622134869312022 1.806904633824192 5.860104238769999 -0.034532747551296816 1.4626977623525705 -2.1654036745971017 -2.846949892282179 2.9609859960424614 -9.061440799503504 3.131477886441984 9.993944136149214 17.644543434750602 4.087800721143843 3.104565178328123 -7.889804633707736 -4.607283402196929 -0.000005844838117754864 -0.04976527481310688 8.387749592318619e-7 -12.808559486967583 -9.131914832333552 -2.7691698075698565 -5.255444310246795 13.770037500263546 -2.1867784141353295 -4.3048351444622 -3.256180334426523 5.441438419804328 0.000006077445965606669 -0.1142336955486442 -8.882505705910335e-7
-0.07732526822523637 8.886135274713688 1.3467059985945102 -0.2805442536015508 -0.4544087114188331 -1.408319100567231 -0.24524433023911485 -0.04312502141356739 0.22273013776584286 -4.086101866413544 -0.7090696422032833 0.014194336703976573 0 0 0 1.5838955026654244 -1.6281615163991048 -1.2601187132920795 -0.29264222727329603 9.372820089237985 2.341722982426195 0 0 0 0 0 0 12.04686754546485 -0.9962788647707874 1.0569543320316508 -18.120129138520223 6.585324258181587 -71.13139743543486 -31.152077670897416 -0.000026889179938215095 0.00002030519358764923 12.634808557664702 11.587757368271522 -10.782150697806422 0.7793459126422237 -0.1875611048787043 -20.952401952535148 3.5608149327723124 0.9838994330494205 -30.86774112975976 1.5007901453782262 0.16639527474531196 -12.598762024556711 6.353406480897328 3.374564241699548 -42.728634119194645 -2.139209969319318 0.34127015193410704 -16.893070560558353 0.9110998397986035 0.08848746374090256 -7.650586444021681 1.9709815127205825 0.14863168644577326 -27.43388333692118 2.289064947607348 0.3885680114724956 -19.30578095645704 1.7785676930556502 0.23229171481578367 -14.882686116391756 1.61399379533137 -0.3195214540321629 -33.840538551369264 1.6997029618559403 0.2123223457651859 -14.228131598248623 1.3223364676364395 0.1277487357500162 -11.024433892729032 13.870628411030642 -12.074750233365423 4.204567778664367 12.38247434419289 8.124809099789783 4.0699149681653894 1.3483744202797245 -0.7351692277806379 2.725733250625444 -2.3699855495901305 -0.022070637938330515 -5.484815965589777 21.348495796912456 2.5182483080987526 78.10944336877888 27.198237888849462 -2.091972947298323e-7 -0.00004174094419081106 -13.61854552814105 0.49520822049793134 0.022823369933427744 -4.700709563560703 0.6459740766756225 8.58709261682177 -4.159979611847126 1.3873960913287082 36.80610340771127 -1.1737659181433904 0.09757908451087417 9.592184541626388 -6.997752800734732 3.5573813047015364 37.34490107804954 -1.7074889281493535 0.1954290064843037 14.929320373354658 -0.9039532757524358 0.03940484852688942 6.96126834592385 -6.804579854155595 1.8431265980713984 17.565180939604286 -2.925313911287571 0.6688292874804358 25.602271802188792 -0.9737636753418567 -1.8613451880964897 6.049487533204902 -4.705563179030935 1.5693162709037232 27.67788776504959 -2.116298145518108 0.3227061597905916 17.422493854412135 -1.3353363167860055 -2.103935202663374 8.284206225587202 -23.75922092071744 5.086475092054242 -8.773004831003412 1.9647786888844483 5.572774008800856 0.07006066791570198 1.5849504835196015 -2.2211282569743513 -2.8394745705354594 2.8201034181410236 -9.158393961616499 3.0241569136288087 9.997237324589827 18.02749054112709 4.070169044073762 3.472666347958158 -8.129851761105245 -4.406703523400716 -0.0000016241517709661016 -0.06653835047854974 -2.0058613805538405e-8 -12.97153210063309 -9.103220664198417 -2.8728440731895724 -5.109321571273451 13.625242183683515 -2.1893968320529185 -4.074454899696299 -3.0355694525392494 5.6240134391410805 0.000026332158868053324 -0.23831415150390653 -9.257581594962427e-7
-0.04187591373920441 8.88242634859952 1.3408238193992796 -0.5249275067531135 -0.5457622456363 -1.5080737008829652 -0.22239193954510914 0.011611142409381095 0.21425697911601313 -4.043619604314262 -0.5368552280825966 -0.05179598774824297 0 0 0 1.5170002540158818 -1.620940064339829 -1.173489419044855 -0.3427244868024571 9.417063578420537 2.4767338416595424 0 0 0 0 0 0 11.942093486553203 -0.9688378530081015 0.9338865949696152 -18.664522138029408 6.429692826579 -70.9626544103799 -30.967290548565014 -0.000024109740325182013 0.000024408965281167915 12.77443073669209 11.324898106224355 -10.869879264207869 0.8307738114602267 -0.17179857822219277 -21.066460804611747 3.5735349841663067 0.9915408821162998 -30.990385124661945 1.5205445566632292 0.17082732631682168 -12.766451954425893 6.332292347240229 3.3707091801666795 -43.033271104325415 -2.1144506048364526 0.3496706635925397 -17.109384417870235 0.9111108307575311 0.08850557977206823 -7.650703797067312 1.9924879909533721 0.15696820210423768 -27.538590937672407 2.306473944975198 0.3947017980417695 -19.458609596218004 1.7740834793475633 0.23110904188236692 -14.84433558523433 1.5998969835536647 -0.3323098027916277 -33.902127413095506 1.7131942021443416 0.2157671863840072 -14.343593624948955 1.320205682256641 0.12734389929625636 -11.00640279981167 13.858650630400614 -12.079840398285452 4.208755537524226 12.386983613312 8.134132079040636 4.072505395122855 1.3636885082576617 -0.7265322845299296 2.7223775710627103 -2.1161430587214407 0.03418931766731153 -5.286709875636523 21.243333721495517 2.284251277799021 77.96035861856161 27.121585825835314 -0.000004864494828454515 0.0000063834190456846645 -13.60474606481548 0.3312536137223238 0.026644683718677717 -4.782418940704117 0.6624039404092414 8.638259837436015 -4.179183542221216 1.401756655576764 37.00235291558861 -1.1649451372167494 0.09610323460360978 9.518669346613276 -7.080433541514252 3.6355404796684168 37.52320219519897 -1.731145826872465 0.20121170339458502 15.129107946028897 -0.8984947519477225 0.03881348340706739 6.916054056673574 -6.894334279654728 1.8865526761059292 17.716331483913773 -2.951408218409908 0.6812081035407226 25.839076518584978 -0.9626741710853961 -1.8578462885386104 5.980753770869025 -4.791751675957971 1.6189242461732452 27.794926250291986 -2.1473304956171826 0.332573223076 17.689466204749944 -1.3302968316869854 -2.1030007580847134 8.253895727392923 -23.906526933279036 5.274966969404469 -8.855706940905083 2.09272287002739 5.338353868605601 0.15316375105468974 1.6874599513915807 -2.26845189499753 -2.8346340268644474 2.734371201027422 -9.28865652559442 2.8909740372669406 10.005167036958214 18.487591615743657 4.085569766153318 3.793071163794891 -8.406255222837169 -4.211691208602293 0.0000033124155848401335 -0.0844444340447023 -2.546202779245137e-8 -13.135453795370793 -9.134066296183681 -2.997549571376447 -4.956846830588374 13.604348936074173 -2.201929081341053 -3.834708161487176 -2.867258596767844 5.821187551687237 0.000009022485407598364 -0.2934475006280528 7.650850823165899e-7
-0.005688619461249222 8.877487182617186 1.3342871947509254 -0.7645149301072253 -0.6497092016134296 -1.6026046995864152 -0.19296422525491988 0.07744311629853139 0.19774104348195054 -4.001687788826384 -0.329082671418853 -0.13357719635001528 0 0 0 1.4403057420217926 -1.625034591070992 -1.0749271255755013 -0.4138074390202024 9.422488178407006 2.6601687684303617 0 0 0 0 0 0 11.746597151836218 -0.934846033981289 0.8288504925005937 -19.409423405596232 6.250011767885219 -70.81588404389754 -30.755639753067047 -0.000026329592842225094 0.000026139753726394657 12.912451540799974 10.946799433484562 -10.954627304408868 0.8365176503837978 -0.17102673671142188 -21.11084350615112 3.5940582350149826 1.0039318701947313 -31.1887165132511 1.5459661336231583 0.17662923850430423 -12.982583547476487 6.351724160908239 3.400253283542504 -43.246441007151 -2.088300609725597 0.3586306822533957 -17.338318163131607 0.9110318665851052 0.08851182966942016 -7.649908683443137 1.9979165912162977 0.15911770549807655 -27.5644517562004 2.330246876546725 0.40313560522374703 -19.667402697664357 1.7724864091107833 0.2306833255411741 -14.83057139655533 1.6047103927814323 -0.3291860597771819 -33.903996172424904 1.7298338180112205 0.2200374995610204 -14.485708722269411 1.3194134086289215 0.127183696280476 -10.999763069113897 13.817739239502169 -12.092353185968403 4.212621010143163 12.415059794227266 8.189958070044923 4.095206746387353 1.4164762697860545 -0.6992400442118117 2.719238187111406 -1.7412240229666252 0.11849236730048256 -5.020062313529339 21.190344720419997 2.051785073577554 77.70748036036356 27.063812588514136 -0.000011832460538380853 0.00001035333019999195 -13.625419031028569 0.0854226729551347 0.04130975728064585 -4.831016806827465 0.6760053222715069 8.725264007604164 -4.199971101749459 1.4174544060317724 37.215487381059994 -1.155892925281178 0.09456442553799704 9.443494075098506 -7.085443181213577 3.627690489346693 37.37166819124268 -1.766565480775517 0.21002309103863273 15.428428830655017 -0.912738870769374 0.040361455438538474 7.033597440266055 -6.907592723528273 1.873080348100155 17.520115839327307 -3.0096489787904295 0.7093327847269679 26.368976203508655 -0.9592716857463922 -1.7950754784606324 6.001070962258048 -4.799214241631691 1.6179283488220773 27.649027060767153 -2.2233112333535194 0.3573704077090477 18.344806494702677 -1.3283287003204072 -2.0362226174074185 8.301564780666437 -23.99189385864296 5.414063611606221 -8.856802575363062 2.161280422770403 5.2120670707819965 0.19641641148562436 1.7461336512892351 -2.2961643191092236 -2.833419325879963 2.715934439346588 -9.45028756289634 2.7364391984876457 10.015793634008867 19.010509984089715 4.136130674145634 4.055301428774814 -8.71206726966345 -4.02247663790095 0.0000016750683415061105 -0.09374595566089593 -0.00000216270511093127 -13.279735125122746 -9.21136419987796 -3.1370026583324018 -4.816024628864851 13.683417268401222 -2.22516017957998 -3.5954089940131455 -2.7422170675266364 6.0325381237903635 -0.000009352270591863267 -0.28311953688875774 -0.0000017931653084693843
